<svg width="512" height="512" viewBox="0 0 512 512" fill="none" xmlns="http://www.w3.org/2000/svg">
<g clip-path="url(#clip0_10969_8745)">
<rect width="512" height="512" rx="110.933" fill="#121417"/>
<path d="M350.061 89.748H161.829C139.261 89.748 120.889 108.398 120.889 131.451C120.889 154.44 139.197 173.155 161.829 173.155H350.061C372.628 173.155 391 154.505 391 131.451C391 108.463 372.692 89.748 350.061 89.748Z" fill="white"/>
<path d="M350.061 214.523H161.829C139.261 214.523 120.889 233.173 120.889 256.227C120.889 279.215 139.197 297.93 161.829 297.93H350.061C372.628 297.93 391 279.28 391 256.227C391 233.238 372.692 214.523 350.061 214.523Z" fill="#05D378"/>
<path d="M350.061 339.268H161.829C139.261 339.268 120.889 357.918 120.889 380.971C120.889 403.96 139.197 422.674 161.829 422.674H350.061C372.628 422.674 391 404.024 391 380.971C391 357.982 372.692 339.268 350.061 339.268Z" fill="white"/>
</g>
<defs>
<clipPath id="clip0_10969_8745">
<rect width="512" height="512" rx="110.933" fill="white"/>
</clipPath>
</defs>
</svg>
