<svg width="259" height="189" viewBox="0 0 259 189" fill="none" xmlns="http://www.w3.org/2000/svg" xmlns:xlink="http://www.w3.org/1999/xlink">
<path d="M259 93.32C259 177.528 206.675 204.604 178.874 180.637C156.318 161.075 149.499 119.489 115.402 115.214C72.1264 110.162 68.1923 166.905 39.6039 166.905C6.29454 166.905 0 119.489 0 94.8745C0 70.2599 7.08115 35.6698 35.2761 35.6698C68.192 35.6698 70.1595 84.64 111.468 81.9195C152.253 79.1989 153.039 28.2855 180.054 6.65056C203.397 -12.5229 259 7.81642 259 93.1903V93.32Z" fill="url(#pattern0_10302_39493)"/>
<defs>
<pattern id="pattern0_10302_39493" patternUnits="userSpaceOnUse" patternTransform="matrix(12.4853 0 0 18.4453 125.29 92.8831)" preserveAspectRatio="none" viewBox="-0.700195 -0.701172 48.0205 70.9433" width="1" height="1">
<use xlink:href="#pattern0_10302_39493_inner" transform="translate(-48.0205 0)"/>
<g id="pattern0_10302_39493_inner">
<path d="M21.3135 0.536133C22.8698 -0.757913 25.4197 -0.668583 27.5254 1.02441C29.6433 2.72736 31.3311 6.04368 31.3311 11.2842V11.2998C31.331 16.4625 29.746 19.9433 27.666 21.7617C25.5803 23.585 22.9855 23.7235 21.166 22.1357H21.165V22.1348C20.4536 21.51 19.8758 20.7186 19.3506 19.8965C19.0876 19.4848 18.8343 19.0599 18.584 18.6416C18.3325 18.2214 18.083 17.807 17.8242 17.4082C16.7849 15.8066 15.637 14.5361 13.7598 14.2979V14.2969C12.5547 14.1552 11.6392 14.4474 10.8809 14.96C10.1091 15.4817 9.48799 16.241 8.89551 17.0566C8.31699 17.853 7.74959 18.7305 7.12207 19.3877C6.48306 20.0569 5.72677 20.5596 4.7373 20.5596C2.52713 20.5596 1.25298 18.9509 0.546875 17.0908C-0.160855 15.2264 -0.349571 12.9978 -0.349609 11.4883C-0.349609 9.9748 -0.136191 8.12672 0.525391 6.64355C1.19192 5.14951 2.34636 3.96875 4.21973 3.96875C6.38939 3.96879 7.54147 5.62843 8.67188 7.02246C9.83318 8.45458 11.0264 9.72223 13.3096 9.57031L13.5176 9.55176C15.6304 9.32544 16.7523 7.88359 17.7461 6.05371C18.0021 5.58241 18.2449 5.09287 18.4951 4.5957C18.7442 4.1008 19 3.59927 19.2744 3.11523C19.8215 2.15029 20.4577 1.23101 21.3135 0.536133Z" stroke="#373737" stroke-width="0.7"/>
<path d="M21.3135 0.536133C22.8698 -0.757913 25.4197 -0.668583 27.5254 1.02441C29.6433 2.72736 31.3311 6.04368 31.3311 11.2842V11.2998C31.331 16.4625 29.746 19.9433 27.666 21.7617C25.5803 23.585 22.9855 23.7235 21.166 22.1357H21.165V22.1348C20.4536 21.51 19.8758 20.7186 19.3506 19.8965C19.0876 19.4848 18.8343 19.0599 18.584 18.6416C18.3325 18.2214 18.083 17.807 17.8242 17.4082C16.7849 15.8066 15.637 14.5361 13.7598 14.2979V14.2969C12.5547 14.1552 11.6392 14.4474 10.8809 14.96C10.1091 15.4817 9.48799 16.241 8.89551 17.0566C8.31699 17.853 7.74959 18.7305 7.12207 19.3877C6.48306 20.0569 5.72677 20.5596 4.7373 20.5596C2.52713 20.5596 1.25298 18.9509 0.546875 17.0908C-0.160855 15.2264 -0.349571 12.9978 -0.349609 11.4883C-0.349609 9.9748 -0.136191 8.12672 0.525391 6.64355C1.19192 5.14951 2.34636 3.96875 4.21973 3.96875C6.38939 3.96879 7.54147 5.62843 8.67188 7.02246C9.83318 8.45458 11.0264 9.72223 13.3096 9.57031L13.5176 9.55176C15.6304 9.32544 16.7523 7.88359 17.7461 6.05371C18.0021 5.58241 18.2449 5.09287 18.4951 4.5957C18.7442 4.1008 19 3.59927 19.2744 3.11523C19.8215 2.15029 20.4577 1.23101 21.3135 0.536133Z" stroke="white" stroke-opacity="0.05" stroke-width="0.7"/>
</g>
<use xlink:href="#pattern0_10302_39493_inner" transform="translate(-24.0102 35.4716)"/>
<use xlink:href="#pattern0_10302_39493_inner" transform="translate(24.0102 35.4716)"/>
</pattern></defs>
</svg>
